<?xml version="1.0" encoding="UTF-8"?>
<svg version="1.1" xmlns="http://www.w3.org/2000/svg" width="225" height="225">
<path d="M0 0 C74.25 0 148.5 0 225 0 C225 74.25 225 148.5 225 225 C150.75 225 76.5 225 0 225 C0 150.75 0 76.5 0 0 Z " fill="#FAFAFA" transform="translate(0,0)"/>
<path d="M0 0 C1.42118492 -0.00350266 2.84236591 -0.00916287 4.26353455 -0.01681519 C8.11701802 -0.03105251 11.969787 -0.01401268 15.82320213 0.00946999 C19.85808406 0.02959129 23.89293668 0.02369877 27.92785645 0.0213623 C34.70348886 0.02141586 41.4788423 0.04116442 48.25439453 0.07324219 C56.08488924 0.1101345 63.91501851 0.11891761 71.74558878 0.11194468 C79.28213842 0.10563666 86.8185629 0.11639947 94.35508728 0.13591003 C97.56072271 0.14407902 100.76629412 0.14679451 103.97193909 0.1452179 C107.74773576 0.14433812 111.52318585 0.15857971 115.29889107 0.18444443 C116.68357729 0.19159879 118.06830041 0.19369334 119.45300102 0.19032669 C121.34495239 0.18660456 123.23691105 0.20322056 125.12878418 0.2208252 C126.71604939 0.22641827 126.71604939 0.22641827 128.33538055 0.23212433 C131.63600316 0.6733643 133.52997709 1.65696938 136.20117188 3.61523438 C137.35866744 5.9302255 137.3341018 7.26915463 137.3483429 9.8462677 C137.35907585 11.17740349 137.35907585 11.17740349 137.37002563 12.53543091 C137.37271454 13.51156342 137.37540344 14.48769592 137.37817383 15.4934082 C137.38474503 16.51954727 137.39131622 17.54568634 137.39808655 18.60292053 C137.41784826 22.00936958 137.42948809 25.41577449 137.43945312 28.82226562 C137.44352865 29.98364233 137.44760418 31.14501904 137.45180321 32.34158897 C137.47267545 38.48757119 137.48697261 44.633531 137.49633789 50.77954102 C137.50740929 57.13523517 137.5418147 63.49057989 137.58150959 69.8461504 C137.60762415 74.72658449 137.61602512 79.60693465 137.61961937 84.48743248 C137.62449807 86.83062795 137.63614832 89.17381935 137.65465736 91.51694679 C137.67894009 94.79454054 137.67810341 98.07122126 137.67114258 101.34887695 C137.69035767 102.80396667 137.69035767 102.80396667 137.70996094 104.28845215 C137.67657531 108.59582733 137.60467963 110.96280982 135.29679871 114.69438171 C131.94229519 117.76912141 129.96054352 117.74690755 125.48954773 117.77586365 C123.66618393 117.79093208 123.66618393 117.79093208 121.8059845 117.80630493 C120.45163026 117.81233523 119.09727536 117.81822021 117.74291992 117.82397461 C116.32218188 117.83351124 114.90144618 117.84340232 113.48071289 117.85362244 C108.80813358 117.88502722 104.13553633 117.90527522 99.46289062 117.92382812 C98.66828186 117.92712545 97.8736731 117.93042277 97.05498528 117.93382001 C89.56301079 117.96459961 82.07103233 117.99131083 74.57901287 118.00823879 C64.99134782 118.03015481 55.40424215 118.07214415 45.81680077 118.14167637 C39.07788764 118.18889302 32.33912556 118.21316911 25.60005218 118.22043568 C21.57379825 118.22539528 17.54817456 118.24050398 13.52210045 118.28017998 C9.73389616 118.31701982 5.9466827 118.32546568 2.15833282 118.31217384 C0.76875407 118.31222784 -0.62086828 118.32254328 -2.01028252 118.34392548 C-12.13250883 118.49136055 -12.13250883 118.49136055 -15.73740768 116.59595776 C-19.23315829 113.1200433 -19.40327663 108.83288427 -19.47647095 104.19735718 C-19.46634979 103.23560577 -19.45622864 102.27385437 -19.44580078 101.28295898 C-19.45456238 100.25623581 -19.46332397 99.22951263 -19.47235107 98.17167664 C-19.49431194 94.78654405 -19.47980413 91.40272339 -19.46289062 88.01757812 C-19.46625942 85.66158294 -19.47111257 83.30558946 -19.47738647 80.94960022 C-19.48475314 76.01595486 -19.47405726 71.08276257 -19.45068359 66.14916992 C-19.42218109 59.82477018 -19.43861162 53.50143062 -19.46854591 47.17706966 C-19.4866106 42.31372585 -19.48086476 37.45063356 -19.46790695 32.58728218 C-19.4645715 30.25527381 -19.46866486 27.92324261 -19.48030472 25.59126091 C-19.49300073 22.33292984 -19.47365236 19.07631818 -19.44580078 15.81811523 C-19.45592194 14.8543396 -19.46604309 13.89056396 -19.47647095 12.89758301 C-19.41112834 8.77238747 -19.10610267 6.18276043 -17.12081909 2.51600647 C-11.70457201 -0.58305413 -6.10243359 -0.06299191 0 0 Z " fill="#F9F9F9" transform="translate(80.798828125,67.384765625)"/>
<path d="M0 0 C1.43526283 -0.01051392 1.43526283 -0.01051392 2.89952087 -0.02124023 C6.05245251 -0.03879995 9.20448161 -0.02720432 12.35742188 -0.01367188 C14.5540789 -0.01636736 16.75073475 -0.02025025 18.9473877 -0.02526855 C23.5472349 -0.03116088 28.14677103 -0.02260893 32.74658203 -0.00390625 C38.63806164 0.01888281 44.52881232 0.00575835 50.4202652 -0.01819611 C54.9550728 -0.03266106 59.48970804 -0.02804482 64.02452087 -0.01768494 C66.19661038 -0.0150196 68.36871561 -0.01828061 70.54078674 -0.02760315 C73.57839314 -0.0377799 76.61482469 -0.02225113 79.65234375 0 C80.54706894 -0.00809692 81.44179413 -0.01619385 82.3636322 -0.02453613 C89.11712362 0.06695633 92.621244 2.09612265 97.67675781 6.62182617 C100.15263072 10.96852963 99.82267538 14.93387681 99.71679688 19.84960938 C99.71113708 20.84135666 99.70547729 21.83310394 99.699646 22.85490417 C99.67730532 26.01379226 99.62711225 29.17153449 99.57617188 32.33007812 C99.55610393 34.475244 99.53785368 36.62042771 99.52148438 38.765625 C99.47744832 44.01666516 99.41055937 49.26703976 99.32617188 54.51757812 C98.20316933 54.51638474 98.20316933 54.51638474 97.05747986 54.51516724 C89.98082719 54.51295384 82.90499146 54.53949806 75.82861996 54.59785652 C72.19099357 54.62685465 68.55400881 54.64496712 64.91625977 54.63769531 C61.40146917 54.63107827 57.88794377 54.6537177 54.37341499 54.69613266 C52.38889585 54.7125971 50.40420122 54.69923532 48.41966248 54.68533325 C41.76586138 54.79198905 37.32927983 55.02854468 32.55958557 59.94039917 C31.4088296 61.41188283 30.36236364 62.96329047 29.32617188 64.51757812 C26.98779297 64.94995117 26.98779297 64.94995117 24.09960938 65.02929688 C23.06835938 65.06474609 22.03710938 65.10019531 20.97460938 65.13671875 C19.894375 65.15927734 18.81414063 65.18183594 17.70117188 65.20507812 C16.61320312 65.23923828 15.52523437 65.27339844 14.40429688 65.30859375 C11.71169124 65.39126147 9.01941897 65.460349 6.32617188 65.51757812 C5.99617188 67.16757813 5.66617188 68.81757812 5.32617188 70.51757812 C12.91617188 70.84757812 20.50617187 71.17757812 28.32617188 71.51757812 C28.32617188 74.81757812 28.32617188 78.11757812 28.32617188 81.51757812 C20.73617187 81.84757812 13.14617188 82.17757812 5.32617188 82.51757812 C5.32617188 84.16757813 5.32617188 85.81757812 5.32617188 87.51757812 C12.91617188 87.84757812 20.50617187 88.17757812 28.32617188 88.51757812 C28.32617188 91.81757812 28.32617188 95.11757812 28.32617188 98.51757812 C20.73617187 98.84757812 13.14617188 99.17757812 5.32617188 99.51757812 C5.32617188 101.16757813 5.32617188 102.81757812 5.32617188 104.51757812 C12.91617188 104.84757812 20.50617187 105.17757812 28.32617188 105.51757812 C28.32504395 107.56589844 28.32391602 109.61421875 28.32275391 111.72460938 C28.32338319 118.51412751 28.35694581 125.30320053 28.40645027 132.0925293 C28.43544656 136.20653316 28.45356125 140.31996973 28.44628906 144.43408203 C28.43967163 148.40917194 28.4623155 152.38314326 28.50472641 156.35800171 C28.51581511 157.86970026 28.51659607 159.38151285 28.50659561 160.89321899 C28.40697566 171.82474689 28.40697566 171.82474689 33.65133667 181.13037109 C37.06061657 183.95415759 39.78652498 184.76695212 44.18652344 184.83642578 C45.14721741 184.85629547 46.10791138 184.87616516 47.09771729 184.89663696 C48.64166168 184.91396378 48.64166168 184.91396378 50.21679688 184.93164062 C51.27654724 184.95100677 52.33629761 184.97037292 53.42816162 184.99032593 C56.81075 185.05007367 60.1933725 185.09648832 63.57617188 185.14257812 C65.87045749 185.18076229 68.16472885 185.21981427 70.45898438 185.25976562 C76.0812535 185.35577127 81.70360865 185.44083296 87.32617188 185.51757812 C87.32617188 186.50757813 87.32617188 187.49757812 87.32617188 188.51757812 C86.66230469 188.80890625 85.9984375 189.10023438 85.31445312 189.40039062 C78.89911624 192.37860541 74.57122219 195.0274775 71.32617188 201.51757812 C71.09995106 203.22121634 70.91728714 204.93086513 70.76367188 206.64257812 C70.63798828 208.00769531 70.63798828 208.00769531 70.50976562 209.40039062 C70.44917969 210.0990625 70.38859375 210.79773438 70.32617188 211.51757812 C59.88615113 211.65678471 49.44635227 211.76330382 39.00559139 211.82845116 C34.15712061 211.85972379 29.3092862 211.90212176 24.46118164 211.97021484 C19.77974281 212.03555329 15.09891485 212.07131476 10.41705513 212.08684158 C8.6336563 212.09790204 6.85028978 212.11950132 5.06715202 212.15195847 C-10.66305737 212.42681746 -10.66305737 212.42681746 -15.19897461 208.79345703 C-19.52553672 204.15541122 -19.96742786 198.83346807 -19.94125366 192.74354553 C-19.94578478 191.96763185 -19.95031589 191.19171818 -19.95498431 190.39229196 C-19.96763018 187.79605378 -19.96600784 185.20002532 -19.96435547 182.60375977 C-19.97034053 180.74085724 -19.97714602 178.8779572 -19.98471069 177.01506042 C-20.00237831 171.95725044 -20.00706634 166.89950813 -20.00834227 161.84167027 C-20.01024174 157.61940497 -20.01759966 153.39715542 -20.02468646 149.17489618 C-20.04097023 139.21432696 -20.04585535 129.25379389 -20.04443359 119.29321289 C-20.04323154 109.01677875 -20.06434617 98.74055441 -20.09592092 88.46417338 C-20.12206465 79.64111183 -20.13280172 70.81811889 -20.13152277 61.9950189 C-20.13101266 56.72539007 -20.13672327 51.45594776 -20.15787888 46.1863575 C-20.17722963 41.23113142 -20.17740738 36.27627046 -20.16284561 31.32103157 C-20.16075262 29.50296496 -20.16548755 27.68487568 -20.17756653 25.86684799 C-20.19299574 23.38366677 -20.18372713 20.90174825 -20.16830444 18.41859436 C-20.17859157 17.70020183 -20.1888787 16.9818093 -20.19947755 16.2416473 C-20.13054549 11.21497447 -18.80030979 8.40306745 -15.67382812 4.51757812 C-10.63108541 0.05192008 -6.41717265 -0.05807298 0 0 Z " fill="#020202" transform="translate(26.673828125,6.482421875)"/>
<path d="M0 0 C1.42118492 -0.00350266 2.84236591 -0.00916287 4.26353455 -0.01681519 C8.11701802 -0.03105251 11.969787 -0.01401268 15.82320213 0.00946999 C19.85808406 0.02959129 23.89293668 0.02369877 27.92785645 0.0213623 C34.70348886 0.02141586 41.4788423 0.04116442 48.25439453 0.07324219 C56.08488924 0.1101345 63.91501851 0.11891761 71.74558878 0.11194468 C79.28213842 0.10563666 86.8185629 0.11639947 94.35508728 0.13591003 C97.56072271 0.14407902 100.76629412 0.14679451 103.97193909 0.1452179 C107.74773576 0.14433812 111.52318585 0.15857971 115.29889107 0.18444443 C116.68357729 0.19159879 118.06830041 0.19369334 119.45300102 0.19032669 C121.34495239 0.18660456 123.23691105 0.20322056 125.12878418 0.2208252 C126.71604939 0.22641827 126.71604939 0.22641827 128.33538055 0.23212433 C131.63600316 0.6733643 133.52997709 1.65696938 136.20117188 3.61523438 C137.35866744 5.9302255 137.3341018 7.26915463 137.3483429 9.8462677 C137.35907585 11.17740349 137.35907585 11.17740349 137.37002563 12.53543091 C137.37271454 13.51156342 137.37540344 14.48769592 137.37817383 15.4934082 C137.38474503 16.51954727 137.39131622 17.54568634 137.39808655 18.60292053 C137.41784826 22.00936958 137.42948809 25.41577449 137.43945312 28.82226562 C137.44352865 29.98364233 137.44760418 31.14501904 137.45180321 32.34158897 C137.47267545 38.48757119 137.48697261 44.633531 137.49633789 50.77954102 C137.50740929 57.13523517 137.5418147 63.49057989 137.58150959 69.8461504 C137.60762415 74.72658449 137.61602512 79.60693465 137.61961937 84.48743248 C137.62449807 86.83062795 137.63614832 89.17381935 137.65465736 91.51694679 C137.67894009 94.79454054 137.67810341 98.07122126 137.67114258 101.34887695 C137.69035767 102.80396667 137.69035767 102.80396667 137.70996094 104.28845215 C137.67657531 108.59582733 137.60467963 110.96280982 135.29679871 114.69438171 C131.94229519 117.76912141 129.96054352 117.74690755 125.48954773 117.77586365 C123.66618393 117.79093208 123.66618393 117.79093208 121.8059845 117.80630493 C120.45163026 117.81233523 119.09727536 117.81822021 117.74291992 117.82397461 C116.32218188 117.83351124 114.90144618 117.84340232 113.48071289 117.85362244 C108.80813358 117.88502722 104.13553633 117.90527522 99.46289062 117.92382812 C98.66828186 117.92712545 97.8736731 117.93042277 97.05498528 117.93382001 C89.56301079 117.96459961 82.07103233 117.99131083 74.57901287 118.00823879 C64.99134782 118.03015481 55.40424215 118.07214415 45.81680077 118.14167637 C39.07788764 118.18889302 32.33912556 118.21316911 25.60005218 118.22043568 C21.57379825 118.22539528 17.54817456 118.24050398 13.52210045 118.28017998 C9.73389616 118.31701982 5.9466827 118.32546568 2.15833282 118.31217384 C0.76875407 118.31222784 -0.62086828 118.32254328 -2.01028252 118.34392548 C-12.13250883 118.49136055 -12.13250883 118.49136055 -15.73740768 116.59595776 C-19.23315829 113.1200433 -19.40327663 108.83288427 -19.47647095 104.19735718 C-19.46634979 103.23560577 -19.45622864 102.27385437 -19.44580078 101.28295898 C-19.45456238 100.25623581 -19.46332397 99.22951263 -19.47235107 98.17167664 C-19.49431194 94.78654405 -19.47980413 91.40272339 -19.46289062 88.01757812 C-19.46625942 85.66158294 -19.47111257 83.30558946 -19.47738647 80.94960022 C-19.48475314 76.01595486 -19.47405726 71.08276257 -19.45068359 66.14916992 C-19.42218109 59.82477018 -19.43861162 53.50143062 -19.46854591 47.17706966 C-19.4866106 42.31372585 -19.48086476 37.45063356 -19.46790695 32.58728218 C-19.4645715 30.25527381 -19.46866486 27.92324261 -19.48030472 25.59126091 C-19.49300073 22.33292984 -19.47365236 19.07631818 -19.44580078 15.81811523 C-19.45592194 14.8543396 -19.46604309 13.89056396 -19.47647095 12.89758301 C-19.41112834 8.77238747 -19.10610267 6.18276043 -17.12081909 2.51600647 C-11.70457201 -0.58305413 -6.10243359 -0.06299191 0 0 Z M-1.79882812 17.61523438 C-1.79882812 42.36523438 -1.79882812 67.11523438 -1.79882812 92.61523438 C38.46117188 92.61523438 78.72117188 92.61523438 120.20117188 92.61523438 C120.20117188 67.86523438 120.20117188 43.11523438 120.20117188 17.61523438 C79.94117188 17.61523438 39.68117187 17.61523438 -1.79882812 17.61523438 Z " fill="#030303" transform="translate(80.798828125,67.384765625)"/>
<path d="M0 0 C3.3 0 6.6 0 10 0 C10.495 3.465 10.495 3.465 11 7 C16.28199593 8.19988045 16.28199593 8.19988045 21 6 C23.82051418 6.17628214 24.80460098 6.80460098 26.8125 8.8125 C28 11 28 11 27.75 13.0625 C27.5025 13.701875 27.255 14.34125 27 15 C25.74807808 17.90912406 25.74807808 17.90912406 26.5625 20.625 C27.83085127 23.343958 27.83085127 23.343958 31.125 23.8125 C32.07375 23.874375 33.0225 23.93625 34 24 C34 27.3 34 30.6 34 34 C30.535 34.495 30.535 34.495 27 35 C25.80011955 40.28199593 25.80011955 40.28199593 28 45 C27.75526163 48.79344475 25.72821615 50.53580477 23 53 C22.401875 52.690625 21.80375 52.38125 21.1875 52.0625 C18.25549007 50.63838089 16.62121104 49.86688335 13.375 50.5625 C10.656042 51.83085127 10.656042 51.83085127 10.1875 55.125 C10.125625 56.07375 10.06375 57.0225 10 58 C7.03 58 4.06 58 1 58 C0.7525 57.05125 0.505 56.1025 0.25 55.125 C-0.70106607 51.97569435 -0.70106607 51.97569435 -2.875 50.5625 C-6.78427743 49.52769127 -9.56520713 51.15993239 -13 53 C-15.5625 50.75 -15.5625 50.75 -18 48 C-17.875 46 -17.875 46 -17 44 C-16.14903194 40.59612776 -15.88227753 38.35316742 -17 35 C-19.31 34.67 -21.62 34.34 -24 34 C-24 31.03 -24 28.06 -24 25 C-20.535 24.505 -20.535 24.505 -17 24 C-16.79375 22.72125 -16.5875 21.4425 -16.375 20.125 C-16.25898437 19.40570313 -16.14296875 18.68640625 -16.0234375 17.9453125 C-16.01570313 17.30335937 -16.00796875 16.66140625 -16 16 C-16.66 15.34 -17.32 14.68 -18 14 C-17.74739753 10.21096292 -15.72150557 8.45813407 -13 6 C-12.01 6.5259375 -12.01 6.5259375 -11 7.0625 C-6.9486909 8.32853409 -4.16625445 7.70614482 0 7 C0 4.69 0 2.38 0 0 Z " fill="#050505" transform="translate(135,93)"/>
<path d="M0 0 C12.54 0 25.08 0 38 0 C38 3.3 38 6.6 38 10 C39.340625 9.896875 40.68125 9.79375 42.0625 9.6875 C47.50912238 9.66168662 49.95843055 11.46362673 54 15 C55 17 55 17 55 26 C31.24 26 7.48 26 -17 26 C-17 16.98564593 -17 16.98564593 -14.125 14.0625 C-13.32449219 13.21365234 -13.32449219 13.21365234 -12.5078125 12.34765625 C-8.78074004 9.01646455 -4.77165371 9.93183352 0 10 C0 6.7 0 3.4 0 0 Z " fill="#010101" transform="translate(121,192)"/>
<path d="M0 0 C25.41 0 50.82 0 77 0 C77 6.27 77 12.54 77 19 C51.59 19 26.18 19 0 19 C0 12.73 0 6.46 0 0 Z " fill="#FBFBFB" transform="translate(28,31)"/>
<path d="M0 0 C3.03978021 0.68164768 4.80055419 2.23591662 6.93359375 4.43359375 C8.55036445 7.66713514 8.40991304 9.8611991 7.93359375 13.43359375 C5.18378855 17.08145671 2.28733528 19.16284544 -2.19140625 20.05859375 C-5.72936874 19.28947147 -7.48749593 17.93882092 -10.06640625 15.43359375 C-11.68229004 12.20182618 -11.64092032 8.92744092 -11.06640625 5.43359375 C-8.02199963 0.86698383 -5.28619941 -0.32976291 0 0 Z " fill="#F5F5F5" transform="translate(142.06640625,112.56640625)"/>
<path d="M0 0 C2.375 1.625 2.375 1.625 4 4 C4.61195145 7.6717087 4.48706506 9.28813568 2.375 12.375 C-0.71186432 14.48706506 -2.3282913 14.61195145 -6 14 C-8.375 12.375 -8.375 12.375 -10 10 C-10.61195145 6.3282913 -10.48706506 4.71186432 -8.375 1.625 C-5.28813568 -0.48706506 -3.6717087 -0.61195145 0 0 Z " fill="#F5F5F5" transform="translate(43,133)"/>
<path d="M0 0 C4.55555556 0.55555556 4.55555556 0.55555556 6 2 C5.71269945 4.33944736 5.38063221 6.6739143 5 9 C2.625 9.125 2.625 9.125 0 9 C-2 7 -2 7 -2.25 4.5 C-2 2 -2 2 0 0 Z " fill="#E7E7E7" transform="translate(138,168)"/>
<path d="M0 0 C0 0.33 0 0.66 0 1 C-0.94875 1.28875 -1.8975 1.5775 -2.875 1.875 C-6.05211578 2.76825109 -6.05211578 2.76825109 -8 5 C-8.64767793 7.57061311 -8.64767793 7.57061311 -9 10 C-9.33 10 -9.66 10 -10 10 C-10.32152515 6.46322336 -10.4131192 4.6037896 -8.375 1.625 C-5.3962104 -0.4131192 -3.53677664 -0.32152515 0 0 Z " fill="#BDBDBD" transform="translate(43,133)"/>
</svg>
